<?xml version="1.0" standalone="no"?><!DOCTYPE svg PUBLIC "-//W3C//DTD SVG 1.1//EN" "http://www.w3.org/Graphics/SVG/1.1/DTD/svg11.dtd"><svg t="1678022616143" class="icon" viewBox="0 0 1024 1024" version="1.1" xmlns="http://www.w3.org/2000/svg" p-id="4514" width="16" height="16" xmlns:xlink="http://www.w3.org/1999/xlink"><path d="M250.965333 107.946667a42.666667 42.666667 0 0 1 42.666667 42.666666v17.536h168.405333a384 384 0 0 1 151.253334 31.061334l11.733333 5.034666a298.666667 298.666667 0 0 0 117.674667 24.149334h70.485333c45.738667 0 82.816 37.077333 82.816 82.816v341.333333c0 45.738667-37.12 82.816-82.816 82.816h-70.485333a384 384 0 0 1-151.296-31.018667l-11.733334-5.034666a298.666667 298.666667 0 0 0-117.674666-24.192H293.674667v155.648h37.674666a42.666667 42.666667 0 1 1 0 85.333333H170.666667a42.666667 42.666667 0 1 1 0-85.333333h37.632V150.570667a42.666667 42.666667 0 0 1 42.666666-42.666667z m42.666667 481.834666h168.405333a384 384 0 0 1 151.253334 31.061334l11.733333 5.034666a298.666667 298.666667 0 0 0 117.674667 24.149334H810.666667V313.728h-67.968a384 384 0 0 1-151.296-31.061333l-11.733334-5.034667a298.666667 298.666667 0 0 0-117.674666-24.149333H293.674667v336.298666z" fill="#1296db" p-id="4515"></path></svg>