<?xml version="1.0" standalone="no"?><!DOCTYPE svg PUBLIC "-//W3C//DTD SVG 1.1//EN" "http://www.w3.org/Graphics/SVG/1.1/DTD/svg11.dtd"><svg t="1678960145720" class="icon" viewBox="0 0 1024 1024" version="1.1" xmlns="http://www.w3.org/2000/svg" p-id="2786" xmlns:xlink="http://www.w3.org/1999/xlink" width="16" height="16"><path d="M810.666667 942.933333c-34.133333 0-68.266667-12.8-93.866667-38.4l-234.666667-234.666666c-140.8 51.2-302.933333-12.8-371.2-153.6-38.4-81.066667-38.4-174.933333 0-256 4.266667-12.8 17.066667-21.333333 29.866667-25.6s25.6 0 38.4 12.8L315.733333 384H384V315.733333L247.466667 179.2c-8.533333-8.533333-12.8-21.333333-12.8-38.4 4.266667-12.8 12.8-25.6 25.6-29.866667 72.533333-34.133333 153.6-38.4 230.4-12.8s136.533333 81.066667 170.666666 153.6c34.133333 72.533333 38.4 153.6 12.8 230.4l234.666667 234.666667c51.2 51.2 51.2 136.533333 0 187.733333-29.866667 25.6-64 38.4-98.133333 38.4z m-320-366.933333c12.8 0 21.333333 4.266667 29.866666 12.8l256 256c17.066667 17.066667 51.2 17.066667 68.266667 0 8.533333-8.533333 12.8-21.333333 12.8-34.133333s-4.266667-25.6-12.8-34.133334l-256-256c-12.8-12.8-17.066667-34.133333-8.533333-46.933333 29.866667-59.733333 29.866667-123.733333 0-183.466667-25.6-51.2-68.266667-93.866667-119.466667-110.933333-34.133333-12.8-68.266667-17.066667-102.4-8.533333l98.133333 98.133333c8.533333 8.533333 12.8 17.066667 12.8 29.866667v128c0 25.6-17.066667 42.666667-42.666666 42.666666H298.666667c-12.8 0-21.333333-4.266667-29.866667-12.8L170.666667 358.4c-4.266667 42.666667 0 85.333333 17.066666 123.733333 51.2 106.666667 179.2 149.333333 285.866667 102.4 4.266667-8.533333 12.8-8.533333 17.066667-8.533333z" p-id="2787" fill="#ffffff"></path></svg>